<svg xmlns="http://www.w3.org/2000/svg" width="173.973" height="190.89" viewBox="0 0 173.973 190.89">
  <g id="Componente_7_1" data-name="Componente 7 – 1" transform="translate(0.5 0.5)">
    <path id="União_1" data-name="União 1" d="M502.037,4295.151l-15.743-15.057h-11a56.792,56.792,0,0,1-56.79-56.789v-59.4a56.79,56.79,0,0,1,56.79-56.788h59.392a56.79,56.79,0,0,1,56.79,56.788v59.4a56.791,56.791,0,0,1-56.79,56.789H526.9l-15.643,15.057a6.659,6.659,0,0,1-9.231,0Z" transform="translate(-418.504 -4107.12)" fill="none" stroke="#fff" stroke-width="1" opacity="0.46"/>
    <g id="Globo_logo_and_wordmark" data-name="Globo logo and wordmark" transform="translate(43.752 44.935)" opacity="0.46">
      <path id="Caminho_5" data-name="Caminho 5" d="M486.366,4133.421a42.384,42.384,0,1,0,42.3,42.376A42.374,42.374,0,0,0,486.366,4133.421Zm-3.583,21.23h3.579a262.081,262.081,0,0,1,28.852,1.178c2.663.271,4.073.907,4.394,3.808.5,5.263.547,10.653.547,16.152s-.05,10.933-.547,16.2c-.321,2.9-1.722,3.54-4.394,3.813a274.691,274.691,0,0,1-28.852,1.179,274.377,274.377,0,0,1-28.808-1.179c-2.663-.273-4.076-.907-4.392-3.813-.5-5.262-.545-10.654-.545-16.2s.044-10.89.545-16.152c.318-2.9,1.722-3.54,4.392-3.808a245.651,245.651,0,0,1,25.229-1.179Zm3.579,3.994a17.167,17.167,0,1,0,12.162,5.008,17.167,17.167,0,0,0-12.162-5.008Z" transform="translate(-444.113 -4133.421)" fill="none" stroke="#fff" stroke-width="1" fill-rule="evenodd"/>
    </g>
  </g>
</svg>
