<svg xmlns="http://www.w3.org/2000/svg" width="468.046" height="468.047" viewBox="0 0 468.046 468.047">
  <g id="Grupo_323" data-name="Grupo 323" transform="translate(-1690.438 -1010.278)" opacity="0.3">
    <path id="Caminho_325" data-name="Caminho 325" d="M2214.367,1244.3c0-128.972-104.552-233.525-233.522-233.525" transform="translate(-56.383 0)" fill="none" stroke="#000" stroke-miterlimit="10" stroke-width="1"/>
    <path id="Caminho_326" data-name="Caminho 326" d="M1980.845,1534.207c128.969,0,233.522-104.553,233.522-233.522" transform="translate(-56.383 -56.383)" fill="none" stroke="#000" stroke-miterlimit="10" stroke-width="1"/>
    <path id="Caminho_327" data-name="Caminho 327" d="M1690.938,1300.685c0,128.969,104.551,233.522,233.524,233.522" transform="translate(0 -56.383)" fill="none" stroke="#000" stroke-miterlimit="10" stroke-width="1"/>
    <path id="Caminho_328" data-name="Caminho 328" d="M1924.463,1010.778c-128.973,0-233.524,104.553-233.524,233.525" transform="translate(0 0)" fill="none" stroke="#000" stroke-miterlimit="10" stroke-width="1"/>
    <path id="Caminho_329" data-name="Caminho 329" d="M2124.9,1369.972c-1.363,9.285-7.472,15.83-17.242,17.207-.015,0-78.517,6.3-173.054,6.4h-3.041c-94.537-.1-173.039-6.4-173.111-6.4-9.716-1.373-15.822-7.917-17.19-17.215a777.45,777.45,0,0,1-5.966-96.147c0-.9,0-1.8.006-2.692s-.006-1.8-.006-2.7a776.2,776.2,0,0,1,5.971-96.156c1.363-9.29,7.469-15.833,17.241-17.212.015,0,78.518-6.294,173.054-6.394h3.041c94.537.1,173.039,6.394,173.111,6.4,9.713,1.371,15.822,7.913,17.188,17.215a777.592,777.592,0,0,1,5.97,96.145h0c0,.905,0,1.8-.008,2.693s.008,1.8.011,2.7A776.982,776.982,0,0,1,2124.9,1369.972Z" transform="translate(-8.628 -26.815)" fill="none" stroke="#000" stroke-miterlimit="10" stroke-width="1"/>
    <g id="Grupo_319" data-name="Grupo 319" transform="translate(1810.702 1130.542)">
      <circle id="Elipse_52" data-name="Elipse 52" cx="99.223" cy="99.223" r="99.223" transform="translate(0 195.913) rotate(-80.836)" fill="none" stroke="#000" stroke-miterlimit="10" stroke-width="1"/>
    </g>
  </g>
</svg>
