<svg xmlns="http://www.w3.org/2000/svg" width="478.34" height="478.34" viewBox="0 0 478.34 478.34">
  <g id="Grupo_320" data-name="Grupo 320" transform="translate(-1690.438 -1010.278)" opacity="0.32">
    <path id="Caminho_325" data-name="Caminho 325" d="M2219.514,1249.449c0-131.814-106.857-238.671-238.669-238.671" transform="translate(-51.236)" fill="none" stroke="#fff" stroke-miterlimit="10" stroke-width="1"/>
    <path id="Caminho_326" data-name="Caminho 326" d="M1980.845,1539.354c131.812,0,238.669-106.857,238.669-238.669" transform="translate(-51.236 -51.236)" fill="none" stroke="#fff" stroke-miterlimit="10" stroke-width="1"/>
    <path id="Caminho_327" data-name="Caminho 327" d="M1690.938,1300.685c0,131.812,106.855,238.669,238.671,238.669" transform="translate(0 -51.236)" fill="none" stroke="#fff" stroke-miterlimit="10" stroke-width="1"/>
    <path id="Caminho_328" data-name="Caminho 328" d="M1929.609,1010.778c-131.816,0-238.671,106.857-238.671,238.671" fill="none" stroke="#fff" stroke-miterlimit="10" stroke-width="1"/>
    <path id="Caminho_329" data-name="Caminho 329" d="M2133.491,1374.85c-1.393,9.49-7.636,16.179-17.621,17.586-.015,0-80.248,6.437-176.868,6.539h-3.108c-96.62-.1-176.853-6.539-176.926-6.543-9.93-1.4-16.171-8.092-17.569-17.595a794.541,794.541,0,0,1-6.1-98.266c0-.92,0-1.84.007-2.751s-.007-1.836-.007-2.761a793.311,793.311,0,0,1,6.1-98.275c1.393-9.495,7.634-16.181,17.621-17.591.016,0,80.248-6.432,176.868-6.535H1939c96.621.1,176.853,6.535,176.926,6.543,9.928,1.4,16.171,8.088,17.568,17.594a794.832,794.832,0,0,1,6.1,98.264h0q0,1.388-.008,2.752.006,1.381.011,2.76A793.977,793.977,0,0,1,2133.491,1374.85Z" transform="translate(-7.84 -24.368)" fill="none" stroke="#fff" stroke-miterlimit="10" stroke-width="1"/>
    <g id="Grupo_319" data-name="Grupo 319" transform="translate(1813.342 1133.182)">
      <circle id="Elipse_52" data-name="Elipse 52" cx="101.41" cy="101.41" r="101.41" transform="translate(0 200.231) rotate(-80.836)" fill="none" stroke="#fff" stroke-miterlimit="10" stroke-width="1"/>
    </g>
  </g>
</svg>
