<svg xmlns="http://www.w3.org/2000/svg" width="346.076" height="115.84" viewBox="0 0 346.076 115.84">
  <g id="Componente_4_1" data-name="Componente 4 – 1" transform="translate(0.375 0.375)">
    <g id="Grupo_228" data-name="Grupo 228" transform="translate(-787.337 -1005.27)" opacity="0.4">
      <path id="Caminho_8" data-name="Caminho 8" d="M938.85,1051.6a23.741,23.741,0,0,1-8.7-1.577,20.427,20.427,0,0,1-11.628-11.253,22.88,22.88,0,0,1,.058-17.445,20.737,20.737,0,0,1,4.877-6.935,22.491,22.491,0,0,1,7.413-4.555,25.831,25.831,0,0,1,9.288-1.638,32.7,32.7,0,0,1,5,.387,31.241,31.241,0,0,1,4.581,1.042,8.7,8.7,0,0,1,3.721,2.083,4.458,4.458,0,0,1,1.161,3.156,3.207,3.207,0,0,1-.893,2.417,2.717,2.717,0,0,1-1.9.863,4.771,4.771,0,0,1-1.7-.387q-.983-.387-2.352-.863a27.213,27.213,0,0,0-3.151-.861,19.536,19.536,0,0,0-4.108-.386,16.845,16.845,0,0,0-5.983,1.042,14.182,14.182,0,0,0-4.792,2.945,13.4,13.4,0,0,0-3.153,4.548,14.76,14.76,0,0,0-1.132,5.864,15.038,15.038,0,0,0,1.081,5.8,12.909,12.909,0,0,0,2.938,4.406,13.276,13.276,0,0,0,4.319,2.792,14.44,14.44,0,0,0,9.641.3,11.38,11.38,0,0,0,3.663-1.965,9.552,9.552,0,0,0,2.5-3.066,9,9,0,0,0,.975-3.92h-7.734a2.847,2.847,0,0,1-2.321-.981,3.7,3.7,0,0,1-.953-2.59v-.178a2.847,2.847,0,0,1,.983-2.322,3.692,3.692,0,0,1,2.589-.954h11.313a3.585,3.585,0,0,1,3.125,1.374,5.178,5.178,0,0,1,.982,3.087,22.122,22.122,0,0,1-1.488,8.335,17.533,17.533,0,0,1-4.138,6.222,18.032,18.032,0,0,1-6.245,3.875,22.288,22.288,0,0,1-7.835,1.342Zm32.149.059a8.065,8.065,0,0,1-5.772-2.024,7.8,7.8,0,0,1-2.148-5.954v-33.1a4.6,4.6,0,0,1,1.074-3.245,3.927,3.927,0,0,1,3.036-1.161,4.029,4.029,0,0,1,3.066,1.161,4.525,4.525,0,0,1,1.1,3.245v31.674a2.415,2.415,0,0,0,.626,1.905,2.171,2.171,0,0,0,1.459.537,4.639,4.639,0,0,0,1.294-.18,4.466,4.466,0,0,1,1.22-.179,2.247,2.247,0,0,1,1.668.744,2.749,2.749,0,0,1,.714,1.995,3.509,3.509,0,0,1-1.787,3.206,8.07,8.07,0,0,1-2.45,1.012,12.759,12.759,0,0,1-3.095.366Zm24.044,0a15.2,15.2,0,0,1-6-1.19,15.838,15.838,0,0,1-4.882-3.206,14.78,14.78,0,0,1-3.275-4.763,14.491,14.491,0,0,1-1.189-5.835,14.258,14.258,0,0,1,1.191-5.8,14.527,14.527,0,0,1,3.274-4.7,15.249,15.249,0,0,1,4.882-3.135,16.552,16.552,0,0,1,12.027,0,15.59,15.59,0,0,1,4.91,3.121,14.334,14.334,0,0,1,4.495,10.509,15.289,15.289,0,0,1-1.132,5.9,14.254,14.254,0,0,1-3.185,4.763,14.973,14.973,0,0,1-4.892,3.186,16.243,16.243,0,0,1-6.222,1.161Zm.059-7.383a7.8,7.8,0,0,0,2.876-.537,7.084,7.084,0,0,0,2.381-1.518,7.286,7.286,0,0,0,1.6-2.351,7.693,7.693,0,0,0,.595-3.087,7.917,7.917,0,0,0-.595-3.133,7.19,7.19,0,0,0-1.6-2.382,6.717,6.717,0,0,0-2.381-1.5,8.346,8.346,0,0,0-2.918-.5,7.709,7.709,0,0,0-2.888.537,7.407,7.407,0,0,0-2.351,1.485,6.872,6.872,0,0,0-1.6,2.35,7.743,7.743,0,0,0-.6,3.067,7.475,7.475,0,0,0,2.249,5.521,7.091,7.091,0,0,0,2.383,1.511,7.785,7.785,0,0,0,2.858.537Zm37.577-22.385a13.954,13.954,0,0,1,9.912,4.079,13.8,13.8,0,0,1,3.037,4.673,16.123,16.123,0,0,1,1.1,6.073,15.386,15.386,0,0,1-1.161,6.073,15.175,15.175,0,0,1-3.066,4.7,13.3,13.3,0,0,1-4.465,3.037,13.6,13.6,0,0,1-5.3,1.074,13.78,13.78,0,0,1-2.8-.308,10.171,10.171,0,0,1-4.967-2.589,7.061,7.061,0,0,1-1.637-2.352v.134a5.186,5.186,0,0,1-1.084,3.39,4.039,4.039,0,0,1-3.027,1.42,3.834,3.834,0,0,1-3.007-1.145,4.781,4.781,0,0,1-1.041-3.3v-35.853a4.687,4.687,0,0,1,1.039-3.245,3.83,3.83,0,0,1,3.007-1.161,3.952,3.952,0,0,1,3.007,1.161,4.529,4.529,0,0,1,1.1,3.245v15.777a7.34,7.34,0,0,1,1.7-2.232,9.793,9.793,0,0,1,2.29-1.518,10.961,10.961,0,0,1,2.621-.868A14.326,14.326,0,0,1,1032.679,1021.894Zm-2.025,22.385a8.027,8.027,0,0,0,2.888-.537,7.014,7.014,0,0,0,2.416-1.518,7.6,7.6,0,0,0,1.635-2.378,7.725,7.725,0,0,0,.626-3.185,7.537,7.537,0,0,0-.6-3.037,6.728,6.728,0,0,0-1.634-2.323,7.685,7.685,0,0,0-2.416-1.489,7.932,7.932,0,0,0-2.917-.537,8.109,8.109,0,0,0-2.888.506,6.788,6.788,0,0,0-2.346,1.49,7.272,7.272,0,0,0-1.6,2.352,7.7,7.7,0,0,0-.595,3.1,7.919,7.919,0,0,0,.584,3.127,7.047,7.047,0,0,0,3.955,3.893,7.688,7.688,0,0,0,2.891.537Zm34.115,7.383a15.2,15.2,0,0,1-6.013-1.19,15.849,15.849,0,0,1-4.882-3.206,14.776,14.776,0,0,1-3.274-4.763,14.484,14.484,0,0,1-1.191-5.834,14.262,14.262,0,0,1,1.191-5.8,14.54,14.54,0,0,1,3.274-4.7,15.259,15.259,0,0,1,4.882-3.125,16.542,16.542,0,0,1,12.027,0,15.59,15.59,0,0,1,4.912,3.125,14.332,14.332,0,0,1,4.494,10.508,15.287,15.287,0,0,1-1.131,5.9,14.256,14.256,0,0,1-3.186,4.763,14.972,14.972,0,0,1-4.882,3.176,16.246,16.246,0,0,1-6.222,1.161Zm.059-7.383a7.783,7.783,0,0,0,2.858-.537,7.078,7.078,0,0,0,2.382-1.518,7.282,7.282,0,0,0,1.6-2.351,7.659,7.659,0,0,0,.6-3.1,7.9,7.9,0,0,0-.6-3.129,7.2,7.2,0,0,0-1.6-2.382,6.728,6.728,0,0,0-2.382-1.489,8.361,8.361,0,0,0-2.917-.506,7.711,7.711,0,0,0-2.887.537,7.414,7.414,0,0,0-2.352,1.489,6.856,6.856,0,0,0-1.6,2.351,7.748,7.748,0,0,0-.595,3.066,7.531,7.531,0,0,0,2.258,5.514,7.078,7.078,0,0,0,2.382,1.518A7.771,7.771,0,0,0,1064.828,1044.279Z" fill="none" stroke="#000" stroke-miterlimit="10" stroke-width="0.75"/>
      <path id="União_1" data-name="União 1" d="M837.86,1119l-9.521-9.107h-6.653a34.349,34.349,0,0,1-34.349-34.347v-35.926a34.349,34.349,0,0,1,34.349-34.348h35.923a34.348,34.348,0,0,1,34.348,34.348v35.926a34.349,34.349,0,0,1-34.348,34.347H852.9L843.439,1119a4.028,4.028,0,0,1-5.583,0Z" fill="none" stroke="#000" stroke-miterlimit="10" stroke-width="0.75"/>
      <g id="Globo_logo_and_wordmark" data-name="Globo logo and wordmark">
        <path id="Caminho_5" data-name="Caminho 5" d="M839.356,1032.448a25.636,25.636,0,1,0,25.585,25.631A25.631,25.631,0,0,0,839.356,1032.448Zm-2.167,12.842h2.164A158.611,158.611,0,0,1,856.8,1046c1.611.165,2.464.549,2.658,2.3.3,3.183.331,6.444.331,9.769s-.03,6.612-.331,9.8c-.194,1.756-1.041,2.141-2.658,2.307a213.9,213.9,0,0,1-34.874,0c-1.611-.166-2.466-.55-2.657-2.307-.3-3.183-.33-6.443-.33-9.8s.027-6.586.33-9.769c.192-1.756,1.042-2.141,2.657-2.3a148.4,148.4,0,0,1,15.259-.712Zm2.164,2.416a10.384,10.384,0,1,0,7.357,3.029,10.381,10.381,0,0,0-7.357-3.029Z" fill="none" stroke="#000" stroke-miterlimit="10" stroke-width="0.75" fill-rule="evenodd"/>
      </g>
      <path id="Caminho_306" data-name="Caminho 306" d="M938.873,1106.067a23.945,23.945,0,0,1-8.37-1.476,21.322,21.322,0,0,1-6.981-4.186,20.017,20.017,0,0,1-4.786-6.633,22.645,22.645,0,0,1-.028-17.577,19.735,19.735,0,0,1,4.762-6.61,21.042,21.042,0,0,1,6.927-4.162,23.739,23.739,0,0,1,8.247-1.436,27.162,27.162,0,0,1,5.052.434,13.676,13.676,0,0,1,3.724,1.184,4.217,4.217,0,0,1,2.6,3.923,3.283,3.283,0,0,1-.78,2.367,2.646,2.646,0,0,1-1.991.806,3.4,3.4,0,0,1-.866-.145q-.519-.144-1.27-.375a22.86,22.86,0,0,0-2.482-.549,18.934,18.934,0,0,0-3.233-.26,15.712,15.712,0,0,0-5.513.953,13.339,13.339,0,0,0-4.474,2.713,12.671,12.671,0,0,0-3,4.242,14.974,14.974,0,0,0,.065,11.375,12.826,12.826,0,0,0,3.117,4.3,13.855,13.855,0,0,0,4.588,2.717,16.218,16.218,0,0,0,5.57.952,17.845,17.845,0,0,0,3.49-.318q1.589-.318,2.8-.664.578-.172.982-.288a3.131,3.131,0,0,1,.866-.116,2.271,2.271,0,0,1,1.817.866,3.311,3.311,0,0,1,.718,2.2,4.38,4.38,0,0,1-.6,2.4,5,5,0,0,1-1.643,1.587A21.267,21.267,0,0,1,938.873,1106.067Zm30.249.058a14.735,14.735,0,0,1-5.83-1.154,15.351,15.351,0,0,1-4.733-3.117,14.338,14.338,0,0,1-3.175-4.618,14.037,14.037,0,0,1-1.154-5.657,13.821,13.821,0,0,1,1.154-5.63,14.093,14.093,0,0,1,3.175-4.564,14.776,14.776,0,0,1,4.733-3.03,16.044,16.044,0,0,1,11.661,0,15.121,15.121,0,0,1,4.762,3.03,13.919,13.919,0,0,1,4.358,10.193,14.807,14.807,0,0,1-1.1,5.714,13.811,13.811,0,0,1-3.087,4.618,14.531,14.531,0,0,1-4.734,3.088A15.731,15.731,0,0,1,969.122,1106.125Zm.058-7.155a7.529,7.529,0,0,0,2.771-.519,6.878,6.878,0,0,0,2.309-1.477,7.057,7.057,0,0,0,1.558-2.282,7.45,7.45,0,0,0,.578-3,7.664,7.664,0,0,0-.578-3.031,6.987,6.987,0,0,0-1.558-2.309,6.522,6.522,0,0,0-2.309-1.443,8.1,8.1,0,0,0-2.829-.491,7.461,7.461,0,0,0-2.8.519,7.186,7.186,0,0,0-2.283,1.443,6.667,6.667,0,0,0-1.558,2.282,7.512,7.512,0,0,0-.577,2.974,7.318,7.318,0,0,0,2.193,5.34,6.878,6.878,0,0,0,2.309,1.477A7.534,7.534,0,0,0,969.18,1098.97Zm37.232-21.707a10.641,10.641,0,0,1,7.735,2.8q2.886,2.8,2.886,8.515v12.988a4.577,4.577,0,0,1-1.039,3.178,3.833,3.833,0,0,1-3,1.154,3.962,3.962,0,0,1-2.972-1.1,4.459,4.459,0,0,1-1.074-3.233v-12.35a5.314,5.314,0,0,0-1.476-4.186,5.676,5.676,0,0,0-3.893-1.3,5.581,5.581,0,0,0-4.214,1.611,6.308,6.308,0,0,0-1.559,4.564v11.66a4.659,4.659,0,0,1-1,3.178,3.741,3.741,0,0,1-2.973,1.154,3.956,3.956,0,0,1-2.974-1.1,4.456,4.456,0,0,1-1.074-3.232v-19.687a5.059,5.059,0,0,1,.982-3.318,4.076,4.076,0,0,1,5.685-.058,4.825,4.825,0,0,1,1.009,3.319A9.757,9.757,0,0,1,1006.412,1077.263Zm40.122,20.261a2.063,2.063,0,0,1,1.7.751,2.677,2.677,0,0,1,.606,1.731,4.393,4.393,0,0,1-.375,1.819,3.984,3.984,0,0,1-1.3,1.531,12.984,12.984,0,0,1-3.839,1.879,18.021,18.021,0,0,1-5.57.78,17.632,17.632,0,0,1-6.128-1.044,14.644,14.644,0,0,1-4.906-2.944,13.555,13.555,0,0,1-3.262-4.59,14.493,14.493,0,0,1-1.184-5.916,14.108,14.108,0,0,1,1.154-5.744,14.454,14.454,0,0,1,3.1-4.527,13.5,13.5,0,0,1,4.564-2.944,15.034,15.034,0,0,1,5.57-1.039,13.975,13.975,0,0,1,4.7.806,11.838,11.838,0,0,1,4.013,2.367,11.592,11.592,0,0,1,2.768,3.808,11.988,11.988,0,0,1,1.039,5.08,4.421,4.421,0,0,1-.866,3.031,3.664,3.664,0,0,1-2.829.953h-15.237a7.229,7.229,0,0,0,2.742,4.445,8.839,8.839,0,0,0,5.4,1.558,10.734,10.734,0,0,0,2.827-.345q1.271-.346,2.367-.75.865-.289,1.558-.492A4.949,4.949,0,0,1,1046.534,1097.524Zm-9.99-14.084a6.012,6.012,0,0,0-3.837,1.3,7,7,0,0,0-2.338,3.549h12.064a5.636,5.636,0,0,0-1.818-3.434A5.758,5.758,0,0,0,1036.544,1083.44Zm30.362,22.685a14,14,0,0,1-5.195-.981,13.223,13.223,0,0,1-4.387-2.829,13.472,13.472,0,0,1-3.03-4.532,15.614,15.614,0,0,1-1.126-6.089,14.513,14.513,0,0,1,1.208-6.031,13.687,13.687,0,0,1,3.233-4.532,14.032,14.032,0,0,1,4.7-2.829,16.117,16.117,0,0,1,5.571-.981,15.556,15.556,0,0,1,3.06.289,9.36,9.36,0,0,1,2.539.866,6.041,6.041,0,0,1,2.194,1.61,3.361,3.361,0,0,1,.8,2.194,3.253,3.253,0,0,1-.75,2.165,2.212,2.212,0,0,1-1.732.894,6.257,6.257,0,0,1-2.282-.519,8.653,8.653,0,0,0-3.2-.52,6.716,6.716,0,0,0-4.849,1.963,7.214,7.214,0,0,0-2.02,5.426,8.18,8.18,0,0,0,.549,3.087,6.4,6.4,0,0,0,3.723,3.7,7.281,7.281,0,0,0,2.655.49,7.6,7.6,0,0,0,1.847-.2,13.558,13.558,0,0,0,1.5-.462q.693-.258,1.27-.49a3.106,3.106,0,0,1,1.154-.231,2.273,2.273,0,0,1,1.761.806,3,3,0,0,1,.721,2.078,3.524,3.524,0,0,1-.721,2.136,7.007,7.007,0,0,1-2.036,1.794,12.319,12.319,0,0,1-3.2,1.27A16.015,16.015,0,0,1,1066.906,1106.125Zm30.132-6.811a2.353,2.353,0,0,1,1.732.692,2.575,2.575,0,0,1,.692,1.905,3.206,3.206,0,0,1-.432,1.732,4.545,4.545,0,0,1-1.24,1.27,11.107,11.107,0,0,1-2.627.9,14.914,14.914,0,0,1-3.146.319,8.623,8.623,0,0,1-6.553-2.34,9.473,9.473,0,0,1-2.223-6.783v-13.449h-2.014a2.532,2.532,0,0,1-1.934-.836,2.894,2.894,0,0,1-.779-2.05,2.8,2.8,0,0,1,.779-2.014,2.574,2.574,0,0,1,1.934-.805h2.014v-4.564a4.494,4.494,0,0,1,1.074-3.175,3.775,3.775,0,0,1,2.915-1.154,3.849,3.849,0,0,1,2.972,1.154,4.494,4.494,0,0,1,1.074,3.175v4.564h5.022a2.578,2.578,0,0,1,1.935.805,2.8,2.8,0,0,1,.78,2.014,2.9,2.9,0,0,1-.78,2.05,2.534,2.534,0,0,1-1.935.836h-5.022v12.462a3.865,3.865,0,0,0,.838,2.8,3.163,3.163,0,0,0,2.339.836,6.591,6.591,0,0,0,1.644-.173,4.36,4.36,0,0,1,.941-.166Zm31.69-21.762a3.965,3.965,0,0,1,2.886,1.154,4.357,4.357,0,0,1,1.039,3.118v19.626a4.744,4.744,0,0,1-.981,3.174,3.806,3.806,0,0,1-2.944,1.209,4.146,4.146,0,0,1-2.973-1.155,4.456,4.456,0,0,1-1.074-3.232v-.462a8.068,8.068,0,0,1-3.81,3.893,12.191,12.191,0,0,1-5.31,1.184,12.973,12.973,0,0,1-5.108-1.039,13.623,13.623,0,0,1-4.359-2.944,14.222,14.222,0,0,1-3.03-4.564,14.956,14.956,0,0,1-1.126-5.888,15.258,15.258,0,0,1,1.1-5.888,13.727,13.727,0,0,1,2.972-4.531,13.527,13.527,0,0,1,9.611-3.954,12.853,12.853,0,0,1,5.253,1.1,7.721,7.721,0,0,1,3.81,3.695v-.231a4.375,4.375,0,0,1,1.039-3.088A4.058,4.058,0,0,1,1128.728,1077.552Zm-11.2,21.358a7.681,7.681,0,0,0,2.828-.52,6.864,6.864,0,0,0,2.309-1.476,7.06,7.06,0,0,0,1.559-2.283,7.457,7.457,0,0,0,.577-3,7.793,7.793,0,0,0-.544-3,6.673,6.673,0,0,0-1.529-2.282,6.5,6.5,0,0,0-2.309-1.444,8.273,8.273,0,0,0-2.886-.491,7.932,7.932,0,0,0-2.858.52,7.031,7.031,0,0,0-2.338,1.443,6.676,6.676,0,0,0-1.559,2.282,7.524,7.524,0,0,0-.577,2.973,7.158,7.158,0,0,0,.6,3,7.472,7.472,0,0,0,1.587,2.282,6.891,6.891,0,0,0,2.309,1.477,7.709,7.709,0,0,0,2.826.514Z" fill="none" stroke="#000" stroke-miterlimit="10" stroke-width="0.75"/>
    </g>
  </g>
</svg>
