<svg id="Componente_6_1" data-name="Componente 6 – 1" xmlns="http://www.w3.org/2000/svg" width="137.291" height="45.662" viewBox="0 0 137.291 45.662">
  <path id="Caminho_8" data-name="Caminho 8" d="M327.01,56.43a9.438,9.438,0,0,1-3.46-.627,8.116,8.116,0,0,1-4.623-4.474,9.091,9.091,0,0,1,.023-6.936,8.238,8.238,0,0,1,1.938-2.757,8.929,8.929,0,0,1,2.947-1.811,10.265,10.265,0,0,1,3.692-.651,12.958,12.958,0,0,1,1.989.153,12.487,12.487,0,0,1,1.821.414,3.456,3.456,0,0,1,1.48.828,1.771,1.771,0,0,1,.461,1.255,1.272,1.272,0,0,1-.355.961,1.078,1.078,0,0,1-.757.344,1.89,1.89,0,0,1-.675-.154q-.391-.153-.935-.343a10.81,10.81,0,0,0-1.253-.343,7.775,7.775,0,0,0-1.633-.153,6.718,6.718,0,0,0-2.379.414,5.647,5.647,0,0,0-1.905,1.172,5.318,5.318,0,0,0-1.253,1.808,5.87,5.87,0,0,0-.45,2.331,5.969,5.969,0,0,0,.429,2.308,5.138,5.138,0,0,0,1.168,1.751A5.284,5.284,0,0,0,325,53.03a5.529,5.529,0,0,0,2.082.391,5.6,5.6,0,0,0,1.751-.273,4.518,4.518,0,0,0,1.456-.781,3.8,3.8,0,0,0,.994-1.219,3.574,3.574,0,0,0,.388-1.558H328.6a1.132,1.132,0,0,1-.923-.39,1.469,1.469,0,0,1-.379-1.029V48.1a1.135,1.135,0,0,1,.391-.923,1.465,1.465,0,0,1,1.03-.379h4.5a1.423,1.423,0,0,1,1.243.546,2.059,2.059,0,0,1,.39,1.227,8.783,8.783,0,0,1-.592,3.314,6.968,6.968,0,0,1-1.645,2.473,7.163,7.163,0,0,1-2.483,1.54,8.847,8.847,0,0,1-3.115.534Zm12.782.023a3.208,3.208,0,0,1-2.295-.8,3.1,3.1,0,0,1-.854-2.367V40.121a1.829,1.829,0,0,1,.427-1.29,1.56,1.56,0,0,1,1.207-.461,1.6,1.6,0,0,1,1.218.461,1.8,1.8,0,0,1,.438,1.29V52.713a.964.964,0,0,0,.249.758.86.86,0,0,0,.58.213,1.853,1.853,0,0,0,.515-.071,1.732,1.732,0,0,1,.485-.071.892.892,0,0,1,.663.3,1.091,1.091,0,0,1,.284.794,1.394,1.394,0,0,1-.71,1.275,3.21,3.21,0,0,1-.973.4,5.086,5.086,0,0,1-1.23.145Zm9.559,0a6.046,6.046,0,0,1-2.384-.473,6.289,6.289,0,0,1-1.941-1.275,5.889,5.889,0,0,1-1.3-1.893,5.749,5.749,0,0,1-.472-2.32,5.661,5.661,0,0,1,.473-2.308,5.774,5.774,0,0,1,1.3-1.868,6.066,6.066,0,0,1,1.941-1.246,6.58,6.58,0,0,1,4.782,0,6.21,6.21,0,0,1,1.952,1.241,5.7,5.7,0,0,1,1.787,4.178,6.084,6.084,0,0,1-.45,2.345,5.663,5.663,0,0,1-1.267,1.893,5.951,5.951,0,0,1-1.944,1.267,6.458,6.458,0,0,1-2.474.462Zm.023-2.935a3.1,3.1,0,0,0,1.143-.214,2.824,2.824,0,0,0,.947-.6,2.882,2.882,0,0,0,.638-.935,3.065,3.065,0,0,0,.237-1.228,3.151,3.151,0,0,0-.237-1.245,2.861,2.861,0,0,0-.637-.948,2.664,2.664,0,0,0-.947-.6,3.319,3.319,0,0,0-1.16-.2,3.069,3.069,0,0,0-1.148.214,2.951,2.951,0,0,0-.935.59,2.734,2.734,0,0,0-.637.935,3.084,3.084,0,0,0-.238,1.219,2.97,2.97,0,0,0,.895,2.194,2.814,2.814,0,0,0,.947.6,3.1,3.1,0,0,0,1.136.214Zm14.939-8.9a5.551,5.551,0,0,1,3.942,1.622,5.485,5.485,0,0,1,1.207,1.858,6.432,6.432,0,0,1,.438,2.414,6.13,6.13,0,0,1-.462,2.415,6.032,6.032,0,0,1-1.219,1.867A5.291,5.291,0,0,1,366.444,56a5.3,5.3,0,0,1-3.219.3,4.047,4.047,0,0,1-1.975-1.029,2.8,2.8,0,0,1-.651-.935V54.4a2.063,2.063,0,0,1-.431,1.347,1.608,1.608,0,0,1-1.2.565,1.524,1.524,0,0,1-1.2-.455,1.9,1.9,0,0,1-.415-1.314V40.285A1.862,1.862,0,0,1,357.769,39a1.519,1.519,0,0,1,1.2-.462,1.568,1.568,0,0,1,1.2.462,1.8,1.8,0,0,1,.437,1.289v6.273a2.92,2.92,0,0,1,.675-.888,3.906,3.906,0,0,1,.91-.6,4.385,4.385,0,0,1,1.042-.345A5.688,5.688,0,0,1,364.313,44.618Zm-.8,8.9a3.194,3.194,0,0,0,1.148-.214,2.786,2.786,0,0,0,.961-.6,3.015,3.015,0,0,0,.65-.946,3.063,3.063,0,0,0,.249-1.266,3,3,0,0,0-.237-1.207,2.683,2.683,0,0,0-.65-.924,3.042,3.042,0,0,0-.96-.592,3.163,3.163,0,0,0-1.16-.214,3.23,3.23,0,0,0-1.148.2,2.7,2.7,0,0,0-.933.592,2.907,2.907,0,0,0-.637.935,3.062,3.062,0,0,0-.236,1.23,3.137,3.137,0,0,0,.232,1.243,2.8,2.8,0,0,0,1.572,1.548,3.056,3.056,0,0,0,1.149.214Zm13.563,2.935a6.045,6.045,0,0,1-2.39-.473,6.269,6.269,0,0,1-1.941-1.275,5.877,5.877,0,0,1-1.3-1.893,5.764,5.764,0,0,1-.473-2.32,5.671,5.671,0,0,1,.473-2.307,5.781,5.781,0,0,1,1.3-1.868,6.057,6.057,0,0,1,1.941-1.243,6.578,6.578,0,0,1,4.781,0,6.2,6.2,0,0,1,1.953,1.243,5.7,5.7,0,0,1,1.787,4.178,6.075,6.075,0,0,1-.45,2.343,5.662,5.662,0,0,1-1.267,1.893,5.949,5.949,0,0,1-1.941,1.263,6.453,6.453,0,0,1-2.473.461Zm.023-2.935a3.091,3.091,0,0,0,1.136-.214,2.836,2.836,0,0,0,.948-.6,2.893,2.893,0,0,0,.637-.935,3.066,3.066,0,0,0,.237-1.231,3.142,3.142,0,0,0-.237-1.243,2.862,2.862,0,0,0-.637-.947,2.667,2.667,0,0,0-.948-.592,3.311,3.311,0,0,0-1.16-.2,3.045,3.045,0,0,0-1.147.214,2.95,2.95,0,0,0-.935.592,2.717,2.717,0,0,0-.637.935,3.082,3.082,0,0,0-.237,1.218,2.993,2.993,0,0,0,.9,2.193,2.812,2.812,0,0,0,.947.6A3.087,3.087,0,0,0,377.1,53.518Z" transform="translate(-266.773 -38.009)" fill="#fff"/>
  <g id="Grupo_3" data-name="Grupo 3">
    <path id="Caminho_5" data-name="Caminho 5" d="M286.7,37.953H272.418a13.656,13.656,0,0,0-13.656,13.656V65.892a13.655,13.655,0,0,0,13.656,13.656h2.645l3.785,3.621h0a1.6,1.6,0,0,0,2.22,0l3.762-3.621H286.7a13.655,13.655,0,0,0,13.656-13.656V51.609A13.656,13.656,0,0,0,286.7,37.953Zm-7.257,31.189a10.192,10.192,0,1,1,10.172-10.194A10.194,10.194,0,0,1,279.443,69.142Z" transform="translate(-258.762 -37.953)" fill="#fff"/>
    <path id="Caminho_6" data-name="Caminho 6" d="M281.4,56.339h-.86a59.184,59.184,0,0,0-6.067.283c-.642.065-.98.218-1.056.916-.121,1.265-.132,2.549-.132,3.884s.011,2.631.132,3.9c.075.7.415.851,1.056.917a66.115,66.115,0,0,0,6.927.283,66.084,66.084,0,0,0,6.938-.283c.643-.066.98-.219,1.057-.917.119-1.267.132-2.574.132-3.9s-.012-2.618-.132-3.884c-.077-.7-.416-.851-1.057-.916A63.172,63.172,0,0,0,281.4,56.339Zm2.927,8.007A4.13,4.13,0,1,1,281.4,57.3h0a4.125,4.125,0,0,1,2.926,7.046Z" transform="translate(-260.718 -40.428)" fill="#fff"/>
  </g>
  <path id="Caminho_306" data-name="Caminho 306" d="M327.027,81.66a9.534,9.534,0,0,1-3.328-.587,8.483,8.483,0,0,1-2.775-1.664,7.964,7.964,0,0,1-1.9-2.638,9,9,0,0,1-.011-6.988,7.876,7.876,0,0,1,1.893-2.628,8.36,8.36,0,0,1,2.754-1.654,9.417,9.417,0,0,1,3.279-.571,10.709,10.709,0,0,1,2.008.172,5.441,5.441,0,0,1,1.481.471,1.676,1.676,0,0,1,1.031,1.56,1.308,1.308,0,0,1-.31.941,1.055,1.055,0,0,1-.792.32,1.329,1.329,0,0,1-.344-.058c-.138-.038-.306-.087-.5-.149a9.172,9.172,0,0,0-.987-.218,7.609,7.609,0,0,0-1.285-.1,6.266,6.266,0,0,0-2.192.379,5.317,5.317,0,0,0-1.779,1.079,5.038,5.038,0,0,0-1.193,1.687,5.95,5.95,0,0,0,.026,4.522,5.088,5.088,0,0,0,1.239,1.708,5.519,5.519,0,0,0,1.824,1.08,6.417,6.417,0,0,0,2.214.378,7.118,7.118,0,0,0,1.388-.126q.631-.126,1.113-.263c.153-.046.283-.085.39-.115a1.252,1.252,0,0,1,.344-.046.9.9,0,0,1,.723.344,1.314,1.314,0,0,1,.286.872,1.745,1.745,0,0,1-.241.953,1.988,1.988,0,0,1-.653.631A8.466,8.466,0,0,1,327.027,81.66Zm12.026.023a5.859,5.859,0,0,1-2.318-.459,6.082,6.082,0,0,1-1.881-1.239,5.7,5.7,0,0,1-1.263-1.835,5.573,5.573,0,0,1-.459-2.249,5.487,5.487,0,0,1,.459-2.239,5.6,5.6,0,0,1,1.263-1.815,5.862,5.862,0,0,1,1.881-1.2,6.377,6.377,0,0,1,4.636,0,6.007,6.007,0,0,1,1.894,1.2A5.538,5.538,0,0,1,345,75.9a5.889,5.889,0,0,1-.436,2.271,5.487,5.487,0,0,1-1.228,1.836,5.777,5.777,0,0,1-1.881,1.228A6.254,6.254,0,0,1,339.054,81.684Zm.022-2.845a2.977,2.977,0,0,0,1.1-.206,2.733,2.733,0,0,0,.918-.588,2.8,2.8,0,0,0,.62-.907,2.958,2.958,0,0,0,.229-1.193,3.042,3.042,0,0,0-.229-1.205,2.772,2.772,0,0,0-.62-.918,2.592,2.592,0,0,0-.918-.574,3.233,3.233,0,0,0-1.124-.2,2.984,2.984,0,0,0-1.113.207,2.874,2.874,0,0,0-.908.574,2.658,2.658,0,0,0-.62.908,2.991,2.991,0,0,0-.229,1.182,2.908,2.908,0,0,0,.872,2.123,2.733,2.733,0,0,0,.918.588A2.984,2.984,0,0,0,339.076,78.839Zm14.8-8.63a4.23,4.23,0,0,1,3.075,1.113,4.521,4.521,0,0,1,1.147,3.385v5.164a1.817,1.817,0,0,1-.413,1.263,1.523,1.523,0,0,1-1.193.459,1.575,1.575,0,0,1-1.182-.437,1.769,1.769,0,0,1-.427-1.285V74.96A2.114,2.114,0,0,0,354.3,73.3a2.256,2.256,0,0,0-1.547-.517,2.221,2.221,0,0,0-1.675.64,2.507,2.507,0,0,0-.62,1.815v4.636a1.852,1.852,0,0,1-.4,1.263,1.486,1.486,0,0,1-1.182.459,1.571,1.571,0,0,1-1.182-.436,1.768,1.768,0,0,1-.427-1.285V72.045a2.015,2.015,0,0,1,.389-1.32,1.62,1.62,0,0,1,2.26-.022,1.912,1.912,0,0,1,.4,1.319A3.881,3.881,0,0,1,353.878,70.209Zm15.951,8.055a.821.821,0,0,1,.678.3,1.066,1.066,0,0,1,.241.689,1.747,1.747,0,0,1-.149.723,1.577,1.577,0,0,1-.517.608,5.135,5.135,0,0,1-1.526.748,7.183,7.183,0,0,1-2.214.31,7,7,0,0,1-2.437-.415,5.826,5.826,0,0,1-1.951-1.17,5.4,5.4,0,0,1-1.3-1.825,5.768,5.768,0,0,1-.471-2.352,5.615,5.615,0,0,1,.459-2.284,5.766,5.766,0,0,1,1.231-1.8,5.37,5.37,0,0,1,1.815-1.17,5.951,5.951,0,0,1,2.214-.414,5.561,5.561,0,0,1,1.868.32,4.709,4.709,0,0,1,1.595.941,4.587,4.587,0,0,1,1.1,1.513,4.762,4.762,0,0,1,.414,2.02,1.759,1.759,0,0,1-.344,1.205,1.457,1.457,0,0,1-1.125.379h-6.058a2.878,2.878,0,0,0,1.09,1.767,3.518,3.518,0,0,0,2.146.62,4.243,4.243,0,0,0,1.124-.138q.5-.138.941-.3.344-.116.62-.2A1.956,1.956,0,0,1,369.83,78.264Zm-3.972-5.6a2.391,2.391,0,0,0-1.526.517,2.789,2.789,0,0,0-.929,1.41h4.8a2.243,2.243,0,0,0-.723-1.365A2.293,2.293,0,0,0,365.858,72.664Zm12.071,9.019a5.588,5.588,0,0,1-2.066-.39,5.251,5.251,0,0,1-1.744-1.125,5.35,5.35,0,0,1-1.2-1.8,6.2,6.2,0,0,1-.448-2.42,5.776,5.776,0,0,1,.48-2.4,5.448,5.448,0,0,1,1.285-1.8,5.577,5.577,0,0,1,1.868-1.124,6.4,6.4,0,0,1,2.215-.39,6.235,6.235,0,0,1,1.216.114,3.727,3.727,0,0,1,1.01.344,2.4,2.4,0,0,1,.872.64,1.338,1.338,0,0,1,.32.872,1.3,1.3,0,0,1-.3.861.882.882,0,0,1-.688.356,2.488,2.488,0,0,1-.908-.207,3.468,3.468,0,0,0-1.274-.207,2.67,2.67,0,0,0-1.927.781,2.866,2.866,0,0,0-.8,2.157,3.238,3.238,0,0,0,.218,1.228,2.544,2.544,0,0,0,1.48,1.469,2.9,2.9,0,0,0,1.056.195,3.04,3.04,0,0,0,.735-.08,5.718,5.718,0,0,0,.6-.183q.275-.1.505-.195a1.209,1.209,0,0,1,.459-.093.906.906,0,0,1,.7.32,1.193,1.193,0,0,1,.286.826,1.4,1.4,0,0,1-.286.85,2.787,2.787,0,0,1-.809.713,4.936,4.936,0,0,1-1.274.505A6.414,6.414,0,0,1,377.929,81.684Zm11.98-2.708a.934.934,0,0,1,.689.276,1.023,1.023,0,0,1,.275.757,1.279,1.279,0,0,1-.172.688,1.805,1.805,0,0,1-.493.505,4.4,4.4,0,0,1-1.044.356,5.89,5.89,0,0,1-1.25.126,3.425,3.425,0,0,1-2.605-.93,3.768,3.768,0,0,1-.884-2.7V72.71h-.8a1.007,1.007,0,0,1-.769-.332,1.152,1.152,0,0,1-.31-.815,1.114,1.114,0,0,1,.31-.8,1.023,1.023,0,0,1,.769-.32h.8V68.628a1.788,1.788,0,0,1,.427-1.263,1.5,1.5,0,0,1,1.16-.459,1.529,1.529,0,0,1,1.181.459,1.785,1.785,0,0,1,.427,1.263v1.815h2a1.025,1.025,0,0,1,.769.32,1.114,1.114,0,0,1,.31.8,1.151,1.151,0,0,1-.31.815,1.009,1.009,0,0,1-.769.332h-2v4.955a1.536,1.536,0,0,0,.333,1.113,1.255,1.255,0,0,0,.929.332,2.643,2.643,0,0,0,.654-.068,1.755,1.755,0,0,1,.374-.067Zm12.6-8.652a1.576,1.576,0,0,1,1.147.459,1.732,1.732,0,0,1,.413,1.239v7.8a1.884,1.884,0,0,1-.39,1.262,1.509,1.509,0,0,1-1.17.48,1.645,1.645,0,0,1-1.182-.459,1.773,1.773,0,0,1-.427-1.285V79.64a3.2,3.2,0,0,1-1.514,1.547,4.843,4.843,0,0,1-2.111.471,5.169,5.169,0,0,1-2.031-.413,5.415,5.415,0,0,1-1.732-1.171,5.631,5.631,0,0,1-1.2-1.815,5.932,5.932,0,0,1-.448-2.341,6.074,6.074,0,0,1,.436-2.341,5.459,5.459,0,0,1,1.182-1.8A5.382,5.382,0,0,1,397.3,70.2a5.12,5.12,0,0,1,2.088.436A3.066,3.066,0,0,1,400.9,72.11v-.092a1.741,1.741,0,0,1,.414-1.228A1.613,1.613,0,0,1,402.508,70.324Zm-4.452,8.491a3.063,3.063,0,0,0,1.124-.207,2.73,2.73,0,0,0,.918-.587,2.8,2.8,0,0,0,.62-.908,2.955,2.955,0,0,0,.229-1.193,3.1,3.1,0,0,0-.215-1.192,2.673,2.673,0,0,0-.608-.907,2.591,2.591,0,0,0-.918-.574,3.282,3.282,0,0,0-1.147-.2,3.149,3.149,0,0,0-1.136.207,2.786,2.786,0,0,0-.929.574,2.643,2.643,0,0,0-.62.907,2.982,2.982,0,0,0-.229,1.182,2.829,2.829,0,0,0,.241,1.193,2.95,2.95,0,0,0,.631.908,2.717,2.717,0,0,0,.918.587,3.057,3.057,0,0,0,1.123.205Z" transform="translate(-266.781 -41.586)" fill="#fff"/>
</svg>
